<?xml version="1.0" encoding="UTF-8"?>
<!-- Generator: visioncortex VTracer 0.6.3 -->
<svg version="1.1" xmlns="http://www.w3.org/2000/svg" width="1280" height="1280">
<path d="M0 0 C9.78 8.86 14.93 17.64 16.13 30.82 C16.43 40.12 14.01 48.96 8.95 56.76 C7.06 58.74 5.18 60.13 2.95 61.76 C2.18 62.61 1.42 63.45 0.63 64.32 C-6.93 71.18 -17.08 73.08 -26.99 72.64 C-33.29 72.08 -38.37 70.44 -44.05 67.76 C-45.04 67.43 -46.03 67.1 -47.05 66.76 C-61.77 87.7 -61.77 87.7 -73.49 110.39 C-73.79 111.09 -74.1 111.79 -74.41 112.51 C-75.3 114.59 -76.18 116.67 -77.05 118.76 C-77.51 119.85 -77.97 120.94 -78.44 122.06 C-86.2 141.33 -91.37 162.96 -92.05 183.76 C-92.11 184.87 -92.16 185.98 -92.21 187.12 C-92.68 205.81 -90.07 224.77 -85.05 242.76 C-84.87 243.44 -84.69 244.13 -84.5 244.83 C-82.23 253.26 -79.55 261.52 -76.49 269.7 C-76.21 270.48 -75.93 271.25 -75.64 272.05 C-74.5 275 -73.58 277.32 -71.14 279.39 C-68.22 279.91 -66.86 279.12 -64.24 277.76 C-31.44 261.81 6.37 251.11 42.95 249.76 C43.67 249.73 44.39 249.71 45.13 249.68 C80.12 248.55 112.09 256.54 142.95 272.76 C144.67 273.65 144.67 273.65 146.43 274.56 C165.29 284.74 180.86 299.65 195.95 314.64 C196.68 315.36 197.41 316.09 198.16 316.84 C201 319.69 203.71 322.47 206.2 325.64 C208.03 327.86 209.18 328.96 211.95 329.76 C213.94 329.17 213.94 329.17 215.82 327.95 C223.22 323.92 232.17 323.68 240.41 325.22 C247.71 327.4 255.08 331.84 259.95 337.76 C259.95 338.42 259.95 339.08 259.95 339.76 C260.94 340.09 261.93 340.42 262.95 340.76 C270.8 351.01 271.78 361.19 270.95 373.76 C269.17 384.74 262.83 393.31 253.95 399.76 C243.6 406.32 231.69 407.15 219.88 404.7 C213.58 402.96 208.93 399.91 203.95 395.76 C203.3 395.24 202.65 394.71 201.98 394.17 C195.7 388.55 191.12 380.43 190.07 372.01 C190.01 370.6 189.96 369.18 189.95 367.76 C189.79 365.87 189.79 365.87 189.63 363.95 C189.7 357.31 192.3 350.23 195.95 344.76 C196.15 342.71 196.15 342.71 194.95 340.76 C192.69 339.32 190.6 338.19 188.2 337.07 C187.49 336.74 186.78 336.4 186.05 336.05 C183.69 334.93 181.32 333.85 178.95 332.76 C177.74 332.19 177.74 332.19 176.5 331.61 C147.51 318.06 113.93 309.75 82.83 321.03 C74.05 324.42 66.46 329.16 58.95 334.76 C58.21 335.29 57.48 335.82 56.72 336.36 C50.48 340.91 45.45 346.13 40.7 352.2 C40.22 352.8 39.75 353.41 39.26 354.03 C30.99 364.74 23.89 376.33 18.13 388.57 C17.62 389.66 17.62 389.66 17.1 390.76 C14.15 397.09 11.62 403.55 9.29 410.14 C8.59 412.04 7.78 413.91 6.95 415.76 C3.25 416.99 2.4 416.39 -1.12 414.92 C-2.15 414.5 -3.18 414.08 -4.24 413.65 C-5.35 413.19 -6.47 412.73 -7.62 412.26 C-35.97 401.01 -65.76 395.06 -96.05 392.07 C-98.74 391.79 -101.42 391.48 -104.11 391.14 C-149.4 385.76 -200.13 389.19 -244.05 401.76 C-245.7 402.21 -247.35 402.65 -249 403.1 C-258.78 405.77 -268.32 408.77 -277.75 412.49 C-282.23 414.23 -286.27 415.28 -291.05 415.76 C-294.51 411.02 -296.52 406.31 -298.55 400.82 C-305.63 382.6 -314.58 365.84 -327.05 350.76 C-327.71 349.95 -328.37 349.13 -329.05 348.29 C-333.25 343.26 -338 338.92 -343.05 334.76 C-343.76 334.18 -344.46 333.59 -345.18 332.98 C-362.99 319.33 -387.89 313.56 -409.99 316.45 C-412.35 316.86 -414.7 317.3 -417.05 317.76 C-418.53 318.02 -420 318.28 -421.48 318.54 C-441.25 322.2 -462.24 329.55 -479.05 340.76 C-480.37 340.76 -481.69 340.76 -483.05 340.76 C-482.63 341.64 -482.21 342.52 -481.78 343.43 C-480.96 345.17 -480.96 345.17 -480.12 346.95 C-479.57 348.1 -479.03 349.25 -478.46 350.43 C-474.83 359.01 -474.64 370.41 -477.05 379.42 C-481.96 390.91 -490.71 400.05 -502.37 404.76 C-513.81 407.95 -525.85 406.17 -536.12 400.64 C-537.77 399.69 -539.42 398.73 -541.05 397.76 C-541.05 397.1 -541.05 396.44 -541.05 395.76 C-541.65 395.49 -542.25 395.22 -542.87 394.95 C-550.02 391.07 -553.32 383.03 -556.05 375.76 C-556.87 372.57 -556.87 372.57 -557.05 369.76 C-557.14 368.57 -557.22 367.37 -557.3 366.14 C-557.14 356.39 -554.02 346.05 -547.27 338.86 C-545.27 337.04 -543.21 335.39 -541.05 333.76 C-540.35 333.21 -539.65 332.67 -538.93 332.1 C-530.22 325.76 -520.71 323.81 -510.05 324.76 C-505.73 325.48 -501.97 326.8 -498.05 328.76 C-494.22 329.2 -494.22 329.2 -492.52 327.43 C-492.02 326.8 -491.51 326.17 -490.99 325.51 C-456.81 284.26 -408.94 255.69 -355.25 250.23 C-305.78 246.04 -258.55 260.27 -214.05 280.76 C-213.22 276.81 -212.61 272.86 -212.04 268.86 C-207.23 235.55 -200.68 202.31 -185.3 172.01 C-184.96 171.33 -184.62 170.65 -184.26 169.95 C-178.78 159.2 -172.64 148.91 -166.04 138.82 C-164.77 136.87 -163.56 134.88 -162.42 132.86 C-161.97 132.17 -161.52 131.47 -161.05 130.76 C-160.39 130.76 -159.73 130.76 -159.05 130.76 C-158.83 130.06 -158.6 129.36 -158.36 128.64 C-156.8 125.19 -154.63 122.54 -152.18 119.7 C-151.75 119.18 -151.31 118.67 -150.86 118.13 C-148.38 115.21 -145.78 112.46 -143.05 109.76 C-142.25 108.79 -141.45 107.82 -140.62 106.82 C-136.99 102.48 -133.11 98.73 -128.73 95.15 C-124.58 91.71 -120.45 88.24 -116.74 84.32 C-115.05 82.76 -115.05 82.76 -112.05 82.76 C-112.05 82.1 -112.05 81.44 -112.05 80.76 C-110.22 79.28 -110.22 79.28 -107.68 77.57 C-106.76 76.95 -105.84 76.33 -104.89 75.68 C-103.49 74.73 -103.49 74.73 -102.05 73.76 C-100.45 72.62 -98.85 71.47 -97.24 70.32 C-91.34 66.2 -85.22 62.47 -79.05 58.76 C-77.96 58.09 -76.86 57.42 -75.73 56.73 C-74.69 56.1 -73.64 55.47 -72.55 54.82 C-71.62 54.26 -70.68 53.69 -69.71 53.11 C-67.11 51.79 -64.93 51.17 -62.05 50.76 C-62.27 50.15 -62.49 49.54 -62.71 48.92 C-66.06 38.38 -67.2 26.25 -62.33 16.01 C-55.83 4.55 -55.83 4.55 -51.05 0.76 C-50.06 0.76 -49.07 0.76 -48.05 0.76 C-47.72 -0.23 -47.39 -1.22 -47.05 -2.24 C-31.71 -11.62 -14.15 -11.37 0 0 Z M-327.05 250.76 C-323.05 251.76 -323.05 251.76 -323.05 251.76 Z M42.95 250.76 C46.95 251.76 46.95 251.76 46.95 251.76 Z M57.95 250.76 C57.95 251.09 57.95 251.42 57.95 251.76 C59.93 251.76 61.91 251.76 63.95 251.76 C63.95 251.43 63.95 251.1 63.95 250.76 C61.97 250.76 59.99 250.76 57.95 250.76 Z " fill="#E1E4E3" transform="translate(782.0546875,208.23828125)"/>
<path d="M0 0 C0.76 0.35 1.52 0.7 2.3 1.06 C14.98 7.36 25.64 18.98 31 32 C31.32 32.76 31.64 33.52 31.97 34.31 C36.5 47.47 35.88 65.45 30 78 C22.24 92.98 9.82 103.09 -5.93 108.69 C-20.23 112.7 -37.44 110.62 -50.42 103.71 C-55.84 100.11 -60.41 95.58 -65 91 C-65.61 90.41 -66.22 89.83 -66.85 89.22 C-77.66 77.89 -80.6 63.23 -80.31 48.22 C-80.04 41.94 -78.71 36.67 -76 31 C-75.58 30.07 -75.15 29.14 -74.71 28.19 C-66.63 11.97 -53.49 2.8 -36.77 -3.15 C-25.07 -5.79 -10.7 -5.69 0 0 Z M-79 43 C-78 45 -78 45 -78 45 Z " fill="#E2E5E4" transform="translate(662,746)"/>
<path d="M0 0 C1.11 0.13 2.22 0.27 3.37 0.41 C21.72 2.69 40.58 5.18 58.09 11.37 C60.68 12.22 63.3 12.59 66 13 C72.05 14.57 77.85 16.72 83.69 18.94 C84.62 19.28 85.56 19.63 86.53 19.99 C87.43 20.33 88.33 20.67 89.26 21.03 C90.08 21.33 90.89 21.64 91.73 21.96 C94.1 23.05 95.97 24.36 98 26 C97.53 32.91 94.79 38.72 92 45 C87.96 44.41 84.3 43.53 80.46 42.14 C64.48 36.53 48.62 32.23 32 29 C31.03 28.81 30.06 28.61 29.06 28.41 C-10.37 20.61 -52.1 19.61 -92 24 C-93.16 24.12 -94.32 24.25 -95.51 24.37 C-123.93 27.5 -152.75 32.96 -179.35 43.77 C-182.91 44.97 -183.68 45.21 -187 44 C-190.89 38.98 -192.37 32.02 -194 26 C-143.2 -5.95 -57.5 -7.04 0 0 Z M-69 -1 C-69 -0.67 -69 -0.34 -69 0 C-66.69 0 -64.38 0 -62 0 C-62 -0.33 -62 -0.66 -62 -1 C-64.31 -1 -66.62 -1 -69 -1 Z M-32 -1 C-32 -0.67 -32 -0.34 -32 0 C-29.69 0 -27.38 0 -25 0 C-25 -0.33 -25 -0.66 -25 -1 C-27.31 -1 -29.62 -1 -32 -1 Z M-84 0 C-80 1 -80 1 -80 1 Z " fill="#E2E5E4" transform="translate(687,608)"/>
<path d="M0 0 C2.84 1.58 4.56 2.72 5.64 5.87 C6.48 10.69 5.84 12.91 3 17 C-21.24 46.48 -56.35 64.31 -94 69 C-96.69 69.12 -99.35 69.21 -102.04 69.24 C-102.79 69.25 -103.55 69.26 -104.33 69.27 C-120.57 69.44 -136.26 69.51 -152 65 C-152.85 64.76 -153.71 64.53 -154.59 64.28 C-178.27 57.57 -198.84 45.55 -216.48 28.46 C-218.1 26.9 -219.74 25.38 -221.38 23.85 C-222.48 22.8 -223.59 21.74 -224.69 20.69 C-225.21 20.21 -225.72 19.73 -226.26 19.23 C-229.59 15.98 -230.74 13.64 -231 9 C-230.83 5.47 -230.29 4.31 -227.88 1.69 C-224.22 -0.46 -222.18 -0.6 -218 0 C-214.64 2.01 -212.39 4.68 -209.88 7.62 C-196.31 23.31 -176.39 37.23 -156.09 42.39 C-154 43 -154 43 -152.09 44.01 C-147.47 46.2 -142.01 46.32 -137 47 C-135.13 47.28 -135.13 47.28 -133.22 47.57 C-96.05 52.84 -60.99 44 -30.86 21.68 C-23.25 15.63 -16.57 8.71 -9.81 1.74 C-6.43 -1.51 -4.45 -1.13 0 0 Z M-125 50 C-121 51 -121 51 -121 51 Z M-103 50 C-99 51 -99 51 -99 51 Z " fill="#E2E5E4" transform="translate(752,849)"/>
<path d="M0 0 C0.99 0 1.98 0 3 0 C3.24 0.87 3.48 1.74 3.73 2.64 C4.65 5.94 5.58 9.24 6.52 12.53 C6.91 13.94 7.31 15.36 7.7 16.77 C11.52 33.19 11.52 33.19 20.9 46.12 C26.02 48.88 31.32 50.66 37.06 51.58 C39 52 39 52 40.96 52.99 C43.23 54.11 45.19 54.48 47.69 54.88 C52.86 55.83 57.3 57.66 62 60 C62 60.99 62 61.98 62 63 C61.21 63.22 60.43 63.43 59.62 63.66 C56.64 64.48 53.67 65.31 50.7 66.14 C48.8 66.67 46.9 67.2 45.01 67.72 C37.07 69.95 29.5 72.58 22 76 C21.27 76.3 20.54 76.59 19.79 76.9 C17.48 78.32 17.01 79.49 16 82 C15.62 82.9 15.25 83.8 14.86 84.73 C11.71 92.82 9.09 100.97 6.69 109.31 C6.33 110.54 5.97 111.77 5.6 113.04 C4.73 116.02 3.86 119.01 3 122 C2.01 122 1.02 122 0 122 C-0.19 121.41 -0.39 120.82 -0.59 120.21 C-1.7 116.83 -2.81 113.49 -4.12 110.19 C-5.19 107.52 -5.84 104.88 -6.36 102.06 C-7.96 93.6 -11.09 83.38 -17 77 C-25.28 72.33 -34.48 69.89 -43.56 67.31 C-45.61 66.73 -47.66 66.14 -49.7 65.55 C-51.53 65.02 -53.36 64.5 -55.19 63.97 C-58 63 -58 63 -60 61 C-59 59 -59 59 -55.98 57.92 C-54.65 57.52 -53.31 57.14 -51.96 56.76 C-51.25 56.55 -50.54 56.34 -49.81 56.12 C-47.52 55.45 -45.23 54.79 -42.94 54.12 C-26.15 50.15 -26.15 50.15 -13.36 39.62 C-10.69 34.49 -9.23 28.94 -7.67 23.38 C-6.67 19.84 -5.62 16.32 -4.56 12.79 C-4.03 10.99 -3.49 9.19 -2.97 7.39 C-2.73 6.57 -2.48 5.75 -2.23 4.91 C-2.02 4.18 -1.81 3.45 -1.58 2.7 C-1 1 -1 1 0 0 Z " fill="#E2E5E4" transform="translate(733,663)"/>
<path d="M0 0 C0.99 0 1.98 0 3 0 C3.45 1.57 3.45 1.57 3.91 3.16 C5.05 7.07 6.21 10.98 7.37 14.89 C7.87 16.57 8.36 18.25 8.85 19.94 C12.45 34.89 12.45 34.89 21.91 46.2 C23.96 47.13 25.96 47.81 28.12 48.44 C29.52 48.89 30.92 49.35 32.32 49.81 C33.53 50.2 34.75 50.59 36 51 C36.73 51.37 37.46 51.73 38.21 52.11 C40.3 53.15 42.13 53.46 44.44 53.81 C50.94 55.01 56.9 57.5 63 60 C62.67 60.99 62.34 61.98 62 63 C59.42 63.98 56.96 64.77 54.31 65.49 C52.71 65.95 51.11 66.42 49.51 66.88 C46.98 67.6 44.46 68.31 41.93 69.01 C27.49 72.57 27.49 72.57 16.61 82 C12.3 89.76 10.16 98.65 7.69 107.12 C7.23 108.67 6.77 110.21 6.31 111.76 C5.2 115.5 4.1 119.25 3 123 C2.34 123 1.68 123 1 123 C-2.2 115.36 -4.7 107.68 -6.91 99.71 C-8.08 95.72 -9.36 91.79 -10.75 87.88 C-10.98 87.19 -11.2 86.5 -11.44 85.79 C-13.25 80.74 -15.43 78.06 -20 75 C-22.51 73.88 -24.85 72.96 -27.44 72.12 C-28.15 71.88 -28.86 71.64 -29.6 71.39 C-39.66 68.03 -49.83 65.02 -60 62 C-59.67 61.01 -59.34 60.02 -59 59 C-56.4 57.99 -53.91 57.19 -51.24 56.44 C-50.06 56.1 -50.06 56.1 -48.86 55.74 C-46.35 55 -43.83 54.28 -41.31 53.56 C-38.81 52.85 -36.31 52.13 -33.81 51.39 C-32.26 50.94 -30.7 50.49 -29.14 50.05 C-22.11 47.99 -15.75 44.56 -12 38 C-10.18 33.31 -8.77 28.52 -7.38 23.69 C-6.99 22.39 -6.61 21.1 -6.22 19.81 C-5.48 17.33 -4.74 14.85 -4.01 12.36 C-2.76 8.21 -1.41 4.1 0 0 Z " fill="#E2E5E4" transform="translate(543,663)"/>
<path d="M0 0 C3.3 0 6.6 0 10 0 C10 0.33 10 0.66 10 1 C6.7 1 3.4 1 0 1 C0 0.67 0 0.34 0 0 Z " fill="#E2E5E4" transform="translate(635,741)"/>
<path d="" fill="#E2E5E4" transform="translate(0,0)"/>
<path d="" fill="#E2E5E4" transform="translate(0,0)"/>
<path d="M0 0 C2 1 2 1 2 1 Z " fill="#000100" transform="translate(491,625)"/>
<path d="" fill="#E2E5E4" transform="translate(0,0)"/>
<path d="" fill="#000100" transform="translate(0,0)"/>
<path d="" fill="#000100" transform="translate(0,0)"/>
<path d="" fill="#E2E5E4" transform="translate(0,0)"/>
</svg>
